<svg width="402" height="82" viewBox="0 0 402 82" fill="none" xmlns="http://www.w3.org/2000/svg">
<path fill-rule="evenodd" clip-rule="evenodd" d="M42.2 49.1L69.7 7.00001H55.8L35.55 37.8L14.95 7.00001H0L28.35 49.25V52.0035C32.7013 53.9202 37.3524 55.1488 42.2 55.829V49.1ZM28.35 60.0035V55.2626C32.7584 57.0639 37.4102 58.2158 42.2 58.8569V63.8291C37.3524 63.1488 32.7013 61.9202 28.35 60.0035ZM65.2496 63.628C65.5549 61.6768 66.1926 59.934 67.1625 58.3996C76.3506 57.1218 85.4858 54.8827 93.949 52.5015C99.9102 50.8243 106.092 48.8008 112.37 46.616C112.383 47.069 112.389 47.5303 112.389 48V51.4318C106.828 53.379 101.356 55.2006 96.0488 56.7723L89.0391 57.4C85.3391 57.7667 82.6724 58.6 81.0391 59.9C80.6165 60.2277 80.2486 60.5911 79.9354 60.9902C75.0913 62.0816 70.1645 63.0034 65.2496 63.628ZM125.997 46.5347V41.7289C127.165 41.302 128.334 40.8741 129.503 40.4464L130.2 40.1911C142.539 35.6744 154.807 31.2027 166.23 28.0609L166.841 27.8931C168.347 28.6885 169.699 29.6908 170.897 30.9C171.099 31.1007 171.296 31.3079 171.487 31.5217C169.455 32.0653 167.438 32.6174 165.435 33.1683C161.079 34.3662 156.607 35.7537 152.066 37.2589C149.834 37.3274 147.644 37.7911 145.497 38.65C144.096 39.2104 142.827 39.939 141.691 40.8359C137.532 42.3146 133.346 43.8448 129.169 45.3739L128.528 45.6083L128.483 45.6248C127.654 45.9284 126.825 46.2318 125.997 46.5347ZM129.169 37.3739C140.263 33.3127 151.416 29.244 161.973 26.152C160.268 25.784 158.426 25.6 156.447 25.6C153.014 25.6 149.78 26.1667 146.747 27.3C143.714 28.4333 141.064 30.05 138.797 32.15H138.097L137.197 26.45H125.997V38.5347C126.84 38.2264 127.684 37.9174 128.528 37.6083L129.169 37.3739ZM189.864 27.1983V22.2533C194.073 21.435 198.352 20.763 202.722 20.312C202.97 20.2864 203.217 20.2614 203.464 20.2371V25.2228C203.115 25.2566 202.765 25.2916 202.414 25.3278C198.145 25.7684 193.966 26.4149 189.864 27.1983ZM202.414 17.3278C202.765 17.2916 203.115 17.2566 203.464 17.2228V0.200012H189.864V19.1983C193.966 18.4149 198.145 17.7684 202.414 17.3278ZM259.932 31.0556C261.557 29.7675 263.365 28.7074 265.356 27.8755C274.138 30.7194 280.784 33.7767 287.332 36.7887C288.579 37.3622 289.822 37.9341 291.076 38.5025C295.184 40.365 299.381 42.1791 304.14 43.8656C304.536 45.4693 304.825 47.1772 305.005 48.9892C300.408 47.3537 296.332 45.5918 292.315 43.7703C291.426 43.3674 290.54 42.9611 289.65 42.5521C289.228 41.6792 288.738 40.9119 288.181 40.25C285.881 37.4833 282.515 36.1 278.081 36.1C277.126 36.1 276.221 36.1634 275.365 36.2903C272.476 35.1464 269.379 34.0172 265.972 32.9219C263.94 32.2685 261.929 31.6455 259.932 31.0556ZM292.315 35.7703C295.738 37.3223 299.203 38.831 302.997 40.2551C301.831 37.2966 300.209 34.7782 298.131 32.7C293.398 27.9667 286.715 25.6 278.081 25.6C275.264 25.6 272.652 25.8558 270.246 26.3674C277.321 28.8801 283.061 31.521 288.614 34.0756L288.62 34.0787L288.632 34.0842C289.865 34.6513 291.088 35.2141 292.315 35.7703ZM317.019 52.5746C315.629 51.0154 314.672 49.1377 314.148 46.9415C315.764 47.3656 317.45 47.7752 319.216 48.1685C329.404 50.4366 340.32 52.1385 351.345 52.5939C352.349 53.1804 353.224 53.8324 353.972 54.55C354.919 55.4466 355.687 56.501 356.275 57.7133L356.009 57.7107C355.837 57.7089 355.664 57.7069 355.491 57.7048C343.339 57.5556 331.179 55.7585 319.868 53.2402C318.894 53.0232 317.945 52.8013 317.019 52.5746ZM319.868 45.2402C323.239 45.9906 326.684 46.6769 330.183 47.2747C329.213 46.9104 328.459 46.4688 327.922 45.95C326.989 44.9833 326.522 43.7167 326.522 42.15C326.522 40.0167 327.505 38.35 329.472 37.15C331.472 35.9167 334.889 35.3 339.722 35.3C344.989 35.3 349.989 35.9667 354.722 37.3V27.5C352.555 26.9 350.155 26.4333 347.522 26.1C344.889 25.7667 342.222 25.6 339.522 25.6C333.722 25.6 328.889 26.3 325.022 27.7C321.189 29.1 318.339 31.0833 316.472 33.65C314.605 36.1833 313.672 39.1667 313.672 42.6C313.672 42.9788 313.681 43.3508 313.7 43.716C315.645 44.2468 317.693 44.756 319.868 45.2402ZM371.303 57.3892V52.3918C376.201 52.1163 380.674 51.6778 384.903 51.1047V56.0797C380.675 56.6638 376.208 57.1098 371.303 57.3892ZM371.303 49.3892C376.208 49.1098 380.675 48.6638 384.903 48.0797V37.25H401.353V26.45H384.903V7.00001H373.703L371.303 26.45H361.403V37.25H371.303V49.3892ZM99.0891 47.8509C103.367 46.5261 107.74 45.0576 112.171 43.5082C111.804 39.983 110.977 37.0636 109.689 34.75C107.922 31.4833 105.222 29.15 101.589 27.75C97.9557 26.3167 93.1891 25.6 87.2891 25.6C84.3891 25.6 81.3224 25.8167 78.0891 26.25C74.8891 26.6833 71.9724 27.3 69.3391 28.1V38.25C71.8391 37.45 74.4891 36.85 77.2891 36.45C80.0891 36.05 82.6891 35.85 85.0891 35.85C88.4891 35.85 91.1891 36.2 93.1891 36.9C95.2224 37.5667 96.7057 38.7167 97.6391 40.35C98.6057 41.95 99.0891 44.1833 99.0891 47.05V47.8509ZM87.8391 49.75L94.9927 49.0823C94.3716 49.2631 93.7528 49.4403 93.1365 49.6137C85.8773 51.6561 78.1946 53.5709 70.4586 54.8604C70.4853 54.8402 70.5121 54.8201 70.5391 54.8C74.2057 52.0333 79.9724 50.35 87.8391 49.75ZM42.2 66.8569C37.4102 66.2158 32.7584 65.0639 28.35 63.2626V68.0035C32.7013 69.9202 37.3524 71.1488 42.2 71.829V66.8569ZM42.2 74.8569C37.4102 74.2158 32.7584 73.0639 28.35 71.2626V81H42.2V74.8569ZM67.0754 74.4117C72.1527 73.7089 77.2145 72.7119 82.1562 71.5588C83.5486 72.2529 85.3429 72.6 87.5391 72.6C89.6391 72.6 91.6891 72.2167 93.6891 71.45C95.7224 70.6833 97.5224 69.5167 99.0891 67.95V66.9897C103.442 65.6577 107.891 64.1749 112.389 62.6094V81H101.089L100.189 75.4H99.4891C97.6557 77.5333 95.3391 79.1667 92.5391 80.3C89.7724 81.4 86.7391 81.95 83.4391 81.95C79.5724 81.95 76.2557 81.3167 73.4891 80.05C70.7224 78.75 68.6224 76.9333 67.1891 74.6C67.1507 74.5375 67.1128 74.4747 67.0754 74.4117ZM125.997 54.5347V49.7289C127.165 49.302 128.334 48.8741 129.503 48.4464L130.2 48.1911C133.341 47.0413 136.478 45.8943 139.597 44.7715V49.5836C136.128 50.8276 132.646 52.1011 129.169 53.3739L128.528 53.6083C127.684 53.9174 126.84 54.2264 125.997 54.5347ZM139.597 52.7715V81H125.997V57.7289C127.165 57.302 128.334 56.8742 129.502 56.4465L129.503 56.4464L130.2 56.1911C133.341 55.0413 136.478 53.8943 139.597 52.7715ZM162.406 45.1515C162.533 46.0509 162.597 47.0337 162.597 48.1V81H176.197V47.4C176.197 45.2711 176.055 43.3033 175.77 41.4967C172.565 42.3253 169.389 43.1921 166.23 44.0609C164.966 44.4087 163.691 44.7728 162.406 45.1515ZM175.143 38.5599C171.867 39.4059 168.633 40.2887 165.435 41.1683C164.186 41.5117 162.928 41.8706 161.662 42.2434C161.256 41.2386 160.717 40.4074 160.047 39.75C159.521 39.2244 158.916 38.7816 158.231 38.4217C160.936 37.575 163.605 36.7828 166.23 36.0609C168.592 35.4114 170.963 34.763 173.349 34.1308C174.093 35.4423 174.691 36.9186 175.143 38.5599ZM189.864 38.2533V81H203.464V42.9C205.064 41.0667 207.031 39.6667 209.364 38.7C211.697 37.7333 214.081 37.25 216.514 37.25C219.747 37.25 222.214 38.0833 223.914 39.75C225.614 41.3833 226.464 44.15 226.464 48.05V81H240.064V47.3C240.064 43.3691 239.579 39.9882 238.61 37.1573C227.557 35.3726 216.08 34.9333 202.722 36.312C198.352 36.763 194.073 37.435 189.864 38.2533ZM237.14 33.8955C226.456 32.3284 215.284 31.9995 202.414 33.3278C198.145 33.7684 193.966 34.4149 189.864 35.1983V30.2533C194.073 29.435 198.352 28.763 202.722 28.312C202.97 28.2864 203.217 28.2614 203.464 28.2371V32.05H204.114C206.033 30.2179 208.194 28.7663 210.595 27.6953C217.994 27.3074 224.85 27.5078 231.455 28.2024C232.7 28.9433 233.837 29.8426 234.864 30.9C235.731 31.7755 236.49 32.774 237.14 33.8955ZM253.184 40.2825C251.682 44.0744 250.931 48.5803 250.931 53.8C250.931 59.9667 252.031 65.1667 254.231 69.4C256.465 73.6 259.598 76.75 263.631 78.85C267.698 80.95 272.515 82 278.081 82C283.615 82 288.415 80.95 292.481 78.85C296.548 76.7167 299.681 73.55 301.881 69.35C303.303 66.6559 304.272 63.5704 304.788 60.0933C299.974 58.4171 295.743 56.6096 291.623 54.75C291.516 60.5183 290.369 64.7183 288.181 67.35C285.881 70.1167 282.515 71.5 278.081 71.5C273.648 71.5 270.281 70.1167 267.981 67.35C265.715 64.55 264.581 60 264.581 53.7C264.581 49.7997 265.02 46.5838 265.898 44.0522C265.619 43.9605 265.338 43.8691 265.054 43.7779C261.025 42.4827 257.091 41.3105 253.184 40.2825ZM291.571 51.4321C291.475 49.591 291.266 47.9278 290.943 46.4424L291.076 46.5025C295.489 48.5034 300.005 50.4482 305.21 52.2392C305.224 52.7359 305.231 53.2395 305.231 53.75C305.231 54.8755 305.194 55.9688 305.12 57.0299C300.476 55.383 296.366 53.6069 292.315 51.7703C292.067 51.6578 291.819 51.5451 291.571 51.4321ZM344.354 68.1427C343.896 69.135 343.136 69.9541 342.072 70.6C340.205 71.7333 337.155 72.3 332.922 72.3C326.522 72.3 320.505 71.4667 314.872 69.8V79.6C320.239 81.2 326.289 82 333.022 82C338.322 82 342.822 81.3167 346.522 79.95C350.222 78.5834 353.005 76.6333 354.872 74.1C356.059 72.4959 356.876 70.703 357.321 68.7213C356.705 68.7178 356.083 68.7123 355.454 68.7046C351.742 68.659 348.035 68.4631 344.354 68.1427ZM357.706 65.7232C356.978 65.7201 356.239 65.714 355.491 65.7048C351.941 65.6612 348.391 65.4771 344.862 65.1754C344.788 63.6501 344.308 62.475 343.422 61.65C342.455 60.7167 340.755 60.0167 338.322 59.55L337.1 59.3519C343.136 60.1386 349.29 60.6289 355.454 60.7046C356.076 60.7122 356.69 60.7177 357.299 60.7211C357.581 62.0067 357.722 63.4163 357.722 64.95C357.722 65.2104 357.717 65.4681 357.706 65.7232ZM371.915 68.3564C373.866 77.4521 380.479 82 391.753 82C395.153 82 398.52 81.6167 401.853 80.85V70.1C399.32 70.6333 397.153 70.9 395.353 70.9C391.72 70.9 389.07 70.05 387.403 68.35C386.999 67.9376 386.644 67.4556 386.337 66.904C381.86 67.5507 377.128 68.0465 371.915 68.3564ZM385.306 64.0235C381.004 64.629 376.458 65.0913 371.459 65.3802C371.355 64.3208 371.303 63.2107 371.303 62.05V60.3918C376.201 60.1163 380.674 59.6778 384.903 59.1047V59.7C384.903 61.3317 385.037 62.7729 385.306 64.0235ZM267.179 41.3157C266.781 41.1839 266.379 41.0527 265.972 40.9219C262.08 39.6707 258.268 38.5308 254.479 37.522C255.302 36.024 256.269 34.6623 257.38 33.437C259.91 34.1627 262.463 34.9449 265.054 35.7779C267.101 36.436 269.032 37.1057 270.872 37.7838C269.771 38.4129 268.807 39.2183 267.981 40.2C267.696 40.5439 267.429 40.9158 267.179 41.3157ZM112.389 59.4318V54.6094C107.891 56.1749 103.442 57.6577 99.0891 58.9897V63.8509C103.437 62.5044 107.884 61.0093 112.389 59.4318ZM79.4906 69.0899C78.8896 68.0403 78.5891 66.777 78.5891 65.3C78.5891 64.972 78.6052 64.6545 78.6375 64.3476C74.1567 65.3094 69.5992 66.1193 65.0404 66.6772C65.0603 68.4277 65.3116 70.0545 65.7942 71.5576C70.3779 70.9548 74.969 70.0978 79.4906 69.0899Z" fill="black"/>
</svg>
