<svg width="1020" height="208" viewBox="0 0 1020 208" fill="none" xmlns="http://www.w3.org/2000/svg">
<path fill-rule="evenodd" clip-rule="evenodd" d="M107.075 124.546L176.851 17.7561H141.582L90.2015 95.8829L37.9328 17.7561H0L71.9328 124.927V131.911C82.9734 136.773 94.7747 139.89 107.075 141.615V124.546ZM71.9328 152.204V140.178C83.1183 144.747 94.9214 147.669 107.075 149.296V161.908C94.7747 160.182 82.9734 157.066 71.9328 152.204ZM165.559 161.398C166.333 156.448 167.951 152.028 170.412 148.136C193.725 144.894 216.904 139.215 238.378 133.175C253.503 128.92 269.189 123.787 285.118 118.245C285.151 119.395 285.166 120.565 285.166 121.756V130.461C271.056 135.4 257.172 140.021 243.706 144.008L225.92 145.6C216.532 146.53 209.766 148.644 205.622 151.941C204.549 152.773 203.616 153.694 202.821 154.707C190.53 157.475 178.029 159.813 165.559 161.398ZM319.694 118.039V105.849C322.657 104.766 325.624 103.681 328.59 102.596L330.358 101.948C361.666 90.4911 392.794 79.1483 421.778 71.1788L423.328 70.7532C427.149 72.7708 430.58 75.3132 433.619 78.3805C434.132 78.8896 434.632 79.4151 435.116 79.9575C429.96 81.3363 424.843 82.7368 419.76 84.1342C408.708 87.1728 397.361 90.6923 385.839 94.5104C380.176 94.6841 374.619 95.8603 369.171 98.039C365.617 99.4605 362.397 101.309 359.514 103.584C348.962 107.335 338.341 111.216 327.742 115.095L326.116 115.689L326.002 115.731C323.898 116.501 321.795 117.271 319.694 118.039ZM327.742 94.8021C355.891 84.5005 384.19 74.1799 410.976 66.3368C406.65 65.4033 401.976 64.9366 396.955 64.9366C388.245 64.9366 380.039 66.374 372.343 69.2488C364.647 72.1235 357.924 76.2244 352.171 81.5512H350.395L348.112 67.0927H319.694V97.7465C321.833 96.9645 323.974 96.1807 326.116 95.3966L327.742 94.8021ZM481.744 68.9908V56.4474C492.424 54.3717 503.281 52.6671 514.369 51.5231C514.999 51.4582 515.625 51.3947 516.252 51.3331V63.9798C515.366 64.0655 514.478 64.1543 513.588 64.2461C502.756 65.3637 492.153 67.0036 481.744 68.9908ZM513.588 43.9534C514.478 43.8616 515.366 43.7728 516.252 43.6871V0.507324H481.744V48.6981C492.153 46.7109 502.756 45.071 513.588 43.9534ZM659.529 78.7752C663.652 75.5078 668.24 72.8187 673.291 70.7086C695.574 77.9224 712.437 85.6775 729.051 93.3176C732.215 94.7724 735.369 96.2231 738.551 97.6648C748.974 102.389 759.623 106.991 771.699 111.269C772.703 115.337 773.437 119.669 773.893 124.265C762.229 120.117 751.887 115.647 741.695 111.027C739.439 110.005 737.191 108.974 734.933 107.937C733.862 105.723 732.619 103.777 731.206 102.098C725.37 95.0796 716.829 91.5707 705.579 91.5707C703.156 91.5707 700.859 91.7315 698.687 92.0534C691.357 89.1518 683.499 86.2875 674.854 83.5092C669.698 81.8518 664.596 80.2715 659.529 78.7752ZM741.695 90.7344C750.38 94.6712 759.172 98.4981 768.798 102.11C765.84 94.606 761.724 88.2178 756.452 82.9463C744.443 70.9399 727.486 64.9366 705.579 64.9366C698.431 64.9366 691.804 65.5854 685.699 66.8831C703.65 73.2568 718.215 79.9557 732.304 86.4356L732.319 86.4435L732.35 86.4575C735.478 87.896 738.581 89.3235 741.695 90.7344ZM804.377 133.36C800.85 129.405 798.422 124.642 797.092 119.071C801.192 120.147 805.47 121.186 809.951 122.183C835.801 127.937 863.499 132.254 891.472 133.409C894.02 134.897 896.24 136.55 898.138 138.371C900.541 140.645 902.489 143.32 903.981 146.395L903.306 146.388C902.87 146.384 902.431 146.378 901.992 146.373C871.159 145.995 840.305 141.436 811.605 135.048C809.134 134.498 806.726 133.935 804.377 133.36ZM811.605 114.756C820.159 116.659 828.9 118.4 837.778 119.916C835.317 118.992 833.403 117.872 832.041 116.556C829.674 114.104 828.489 110.891 828.489 106.917C828.489 101.506 830.983 97.278 835.974 94.2341C841.048 91.1058 849.718 89.5414 861.981 89.5414C875.345 89.5414 888.032 91.2326 900.041 94.6146V69.7561C894.542 68.2341 888.453 67.0503 881.772 66.2049C875.091 65.3594 868.325 64.9366 861.474 64.9366C846.757 64.9366 834.495 66.7122 824.683 70.2634C814.957 73.8146 807.726 78.8454 802.989 85.3561C798.251 91.782 795.884 99.3496 795.884 108.059C795.884 109.019 795.907 109.963 795.955 110.889C800.89 112.236 806.087 113.527 811.605 114.756ZM942.112 145.573V132.896C954.54 132.197 965.889 131.085 976.62 129.631V142.251C965.892 143.733 954.558 144.864 942.112 145.573ZM942.112 125.28C954.558 124.571 965.892 123.44 976.62 121.958V94.4878H1018.36V67.0927H976.62V17.7561H948.202L942.112 67.0927H916.993V94.4878H942.112V125.28ZM251.42 121.378C262.275 118.017 273.37 114.292 284.613 110.362C283.682 101.42 281.583 94.015 278.315 88.1463C273.832 79.8601 266.981 73.9414 257.763 70.3902C248.544 66.7545 236.45 64.9366 221.48 64.9366C214.122 64.9366 206.34 65.4862 198.137 66.5853C190.017 67.6844 182.617 69.2488 175.935 71.278V97.0244C182.278 94.9951 189.002 93.4731 196.107 92.4585C203.211 91.4439 209.808 90.9366 215.898 90.9366C224.525 90.9366 231.375 91.8244 236.45 93.6C241.609 95.2911 245.373 98.2082 247.741 102.351C250.194 106.41 251.42 112.075 251.42 119.346V121.378ZM222.875 126.195L241.026 124.501C239.45 124.96 237.88 125.41 236.316 125.849C217.898 131.03 198.404 135.887 178.776 139.158C178.843 139.107 178.911 139.056 178.98 139.005C188.283 131.987 202.915 127.717 222.875 126.195ZM107.075 169.588C94.9214 167.962 83.1183 165.04 71.9328 160.471V172.497C82.9734 177.359 94.7747 180.475 107.075 182.2V169.588ZM107.075 189.881C94.9214 188.255 83.1183 185.333 71.9328 180.764V205.463H107.075V189.881ZM170.191 188.752C183.074 186.969 195.917 184.44 208.456 181.515C211.989 183.276 216.542 184.156 222.114 184.156C227.442 184.156 232.644 183.184 237.719 181.239C242.878 179.294 247.445 176.335 251.42 172.361V169.925C262.465 166.546 273.753 162.785 285.166 158.814V205.463H256.494L254.211 191.259H252.435C247.783 196.67 241.905 200.813 234.801 203.688C227.781 206.478 220.084 207.873 211.711 207.873C201.9 207.873 193.485 206.267 186.465 203.054C179.445 199.756 174.117 195.148 170.48 189.229C170.382 189.071 170.286 188.911 170.191 188.752ZM319.694 138.332V126.142C322.657 125.059 325.624 123.973 328.59 122.888L330.358 122.241C338.328 119.324 346.287 116.415 354.201 113.567V125.773C345.399 128.929 336.564 132.159 327.742 135.387L326.116 135.982C323.974 136.766 321.833 137.55 319.694 138.332ZM354.201 133.859V205.463H319.694V146.434C322.657 145.351 325.624 144.266 328.587 143.181L328.59 143.181L330.358 142.533C338.328 139.617 346.287 136.707 354.201 133.859ZM412.075 114.531C412.397 116.812 412.56 119.305 412.56 122.01V205.463H447.067V120.234C447.067 114.834 446.707 109.842 445.984 105.26C437.852 107.362 429.793 109.56 421.778 111.764C418.57 112.646 415.335 113.57 412.075 114.531ZM444.393 97.8104C436.08 99.9564 427.875 102.196 419.76 104.427C416.591 105.298 413.399 106.208 410.187 107.154C409.157 104.605 407.789 102.497 406.089 100.829C404.755 99.496 403.22 98.3728 401.482 97.4599C408.345 95.3122 415.117 93.3027 421.778 91.4715C427.771 89.824 433.787 88.1793 439.841 86.5757C441.729 89.9024 443.246 93.6471 444.393 97.8104ZM481.744 97.0327V205.463H516.252V108.819C520.312 104.169 525.303 100.618 531.222 98.1658C537.142 95.7137 543.191 94.4878 549.364 94.4878C557.567 94.4878 563.827 96.6015 568.14 100.829C572.453 104.972 574.61 111.99 574.61 121.883V205.463H609.118V119.98C609.118 110.009 607.887 101.433 605.428 94.2526C577.383 89.7256 548.263 88.6113 514.369 92.1085C503.281 93.2525 492.424 94.957 481.744 97.0327ZM601.698 85.9788C574.59 82.0037 546.243 81.1694 513.588 84.5388C502.756 85.6564 492.153 87.2963 481.744 89.2835V76.7401C492.424 74.6644 503.281 72.9598 514.369 71.8158C514.999 71.7508 515.625 71.6874 516.252 71.6258V81.2975H517.901C522.77 76.6503 528.253 72.9681 534.346 70.2515C553.119 69.2675 570.515 69.7759 587.274 71.5378C590.433 73.4171 593.318 75.6983 595.924 78.3805C598.123 80.6012 600.049 83.134 601.698 85.9788ZM642.407 102.18C638.596 111.798 636.691 123.228 636.691 136.468C636.691 152.111 639.482 165.301 645.064 176.039C650.732 186.693 658.682 194.683 668.914 200.01C679.234 205.337 691.456 208 705.579 208C719.62 208 731.799 205.337 742.116 200.01C752.435 194.598 760.385 186.566 765.967 175.912C769.575 169.078 772.033 161.252 773.343 152.432C761.128 148.18 750.393 143.595 739.939 138.878C739.667 153.51 736.757 164.163 731.206 170.839C725.37 177.857 716.829 181.366 705.579 181.366C694.331 181.366 685.788 177.857 679.952 170.839C674.202 163.737 671.325 152.195 671.325 136.215C671.325 126.321 672.439 118.164 674.667 111.742C673.959 111.51 673.246 111.278 672.525 111.046C662.302 107.761 652.32 104.788 642.407 102.18ZM739.807 130.462C739.563 125.792 739.033 121.573 738.214 117.805L738.551 117.958C749.748 123.033 761.207 127.966 774.413 132.509C774.449 133.769 774.467 135.047 774.467 136.341C774.467 139.196 774.373 141.97 774.185 144.661C762.402 140.484 751.973 135.978 741.695 131.32C741.066 131.034 740.436 130.749 739.807 130.462ZM873.734 172.85C872.572 175.367 870.644 177.445 867.944 179.083C863.207 181.958 855.468 183.395 844.727 183.395C828.489 183.395 813.222 181.281 798.929 177.054V201.912C812.547 205.971 827.897 208 844.981 208C858.429 208 869.847 206.267 879.235 202.8C888.623 199.333 895.684 194.387 900.422 187.961C903.433 183.892 905.506 179.344 906.635 174.317C905.072 174.309 903.494 174.295 901.898 174.275C892.48 174.159 883.074 173.662 873.734 172.85ZM907.612 166.712C905.765 166.705 903.89 166.689 901.992 166.666C892.985 166.555 883.977 166.088 875.023 165.323C874.835 161.454 873.617 158.473 871.369 156.38C868.916 154.013 864.602 152.237 858.429 151.054L855.328 150.551C870.644 152.547 886.258 153.79 901.898 153.982C903.476 154.002 905.034 154.016 906.58 154.024C907.295 157.285 907.653 160.861 907.653 164.751C907.653 165.412 907.64 166.065 907.612 166.712ZM943.665 173.392C948.615 196.464 965.394 208 994 208C1002.63 208 1011.17 207.028 1019.63 205.083V177.815C1013.2 179.167 1007.7 179.844 1003.13 179.844C993.916 179.844 987.193 177.688 982.963 173.376C981.938 172.329 981.037 171.107 980.258 169.708C968.899 171.348 956.892 172.606 943.665 173.392ZM977.642 162.401C966.727 163.937 955.192 165.11 942.508 165.842C942.244 163.155 942.112 160.339 942.112 157.395V153.189C954.54 152.49 965.889 151.378 976.62 149.924V151.434C976.62 155.573 976.96 159.229 977.642 162.401ZM677.917 104.801C676.907 104.466 675.887 104.134 674.854 103.802C664.979 100.628 655.307 97.7366 645.693 95.1777C647.781 91.3779 650.235 87.9239 653.054 84.8158C659.473 86.6566 665.951 88.6407 672.525 90.7537C677.719 92.423 682.619 94.1217 687.287 95.8418C684.494 97.4376 682.048 99.4805 679.952 101.971C679.229 102.843 678.551 103.786 677.917 104.801ZM285.166 150.754V138.521C273.753 142.492 262.465 146.254 251.42 149.632V161.963C262.452 158.548 273.736 154.755 285.166 150.754ZM201.693 175.252C200.168 172.59 199.405 169.386 199.405 165.639C199.405 164.807 199.446 164.002 199.528 163.223C188.159 165.663 176.595 167.717 165.028 169.132C165.078 173.573 165.716 177.699 166.941 181.512C178.571 179.983 190.22 177.809 201.693 175.252Z" fill="white"/>
</svg>
