<svg width="70" height="75" viewBox="0 0 70 75" fill="none" xmlns="http://www.w3.org/2000/svg">
<path fill-rule="evenodd" clip-rule="evenodd" d="M42.2 42.9L69.7 0.799988H55.8L35.55 31.6L14.95 0.799988H0L28.35 43.05V45.8034C32.7013 47.7202 37.3524 48.9488 42.2 49.629V42.9ZM28.35 53.8034V49.0625C32.7584 50.8639 37.4102 52.0158 42.2 52.6569V57.629C37.3524 56.9488 32.7013 55.7202 28.35 53.8034ZM42.2 60.6569C37.4102 60.0158 32.7584 58.8639 28.35 57.0625V61.8034C32.7013 63.7202 37.3524 64.9488 42.2 65.629V60.6569ZM42.2 68.6569C37.4102 68.0158 32.7584 66.8639 28.35 65.0625V74.8H42.2V68.6569Z" fill="white"/>
</svg>
